<?xml version="1.0" encoding="UTF-8"?>
<svg id="Layer_2" data-name="Layer 2" xmlns="http://www.w3.org/2000/svg" viewBox="0 0 271.77 276.65">
  <defs>
    <style>
      .cls-1 {
        fill: #fff;
        stroke-width: 0px;
      }
    </style>
  </defs>
  <path class="cls-1" d="M126.76,120.78c35.88-14.95,71.89-29.97,109.62-39.54,8.39-2.13,16.99-3.86,25.64-4.86-.19-.38-.38-.76-.58-1.13h-.03C238.49,30.58,191.99,0,138.33,0,61.93,0,0,61.93,0,138.33c0,9.9,1.05,19.54,3.03,28.85,0,0,0,0,0,0,.03.15.07.31.1.46.13.6.25,1.21.39,1.81,2.11-.87,4.51-1.86,7.13-2.94,38.83-14.09,78.27-30.24,116.11-45.72ZM65.59,121.92s17.92-7.84,46.16-21.1c83.97-39.42,105.27-52.07,105.27-52.07,0,0,9.72,10.47,18.98,20.19,2.42,2.55,5.65,5.25,9.13,7.89-2.65.38-5.27.83-7.86,1.3-1.14-1.01-2.19-2.01-3.12-2.99-9.25-9.73-18.04-19.28-18.04-19.28,0,0-7.87,11.47-16.23,21.98-3.29,4.13-8.02,9.02-12.72,13.56-21.23,7.02-42.04,15.39-62.66,23.9-25.8,10.68-52.37,21.97-78.71,33.32,8.47-11.18,19.8-26.7,19.8-26.7ZM241.82,228.63c.91-.54,1.77-1.07,2.59-1.59-9.88,11.8-21.68,21.94-34.93,29.92-13.12,1.04-29.31.47-45.65-2.85-19.9-4.03-40.02-12.12-61.19-18.07-21.17-5.95-43.38-9.75-60.63-10-3.71-.05-7.18.07-10.45.31-6.37-7.73-11.9-16.16-16.49-25.17,7.92-1.23,17.56-1.51,30.14,0,13.15,1.57,29.51,5.08,47.14,10.77,17.63,5.7,36.54,13.59,56.28,19.32,19.73,5.74,40.29,9.32,56.6,8.43,16.31-.89,28.37-6.25,36.58-11.08ZM175.38,271.62c-11.79,3.27-24.22,5.03-37.06,5.03-.06,0-.11,0-.17,0-.07,0-.14,0-.21,0-36.3,0-69.31-14.08-93.94-37.07,11.41,1.52,24.59,4.21,38.61,8.23,17.81,5.11,36.96,12.37,56.86,17.45,12.07,3.08,24.42,5.35,35.89,6.35ZM159.97,178.55c-2.45.93-5.27,2-8.35,3.19.06.03.12.05.18.08,11.8,5.53,23.02,12.08,34.21,17.48,15.37-5.09,30.94-9.56,46.84-12.77,9.48-1.89,19.5-3.28,29.16-3.46,2.93-.15,6.84.23,9.77.31-12.92.27-25.83,2.7-38.29,5.97-13.91,3.61-27.57,8.05-41.1,12.88,2.41,1.05,4.83,2.04,7.25,2.92,15.8,5.77,31.96,7.49,43.85,6.71,11.9-.79,19.53-4.09,23.34-5.77,3.81-1.69,3.79-1.75,1.77.22-2.03,1.98-6.06,6-13.33,10.34-.63.37-1.29.75-1.97,1.13-4.68,2.04-13.15,5.39-26.27,6.87-14.23,1.6-33.92.97-53.69-3.72-19.77-4.69-39.61-13.44-60.58-20.08-20.96-6.64-43.05-11.18-60.28-12-17.24-.82-29.64,2.08-38.56,5.6-.6.24-1.18.48-1.74.72-1.65-3.67-3.16-7.41-4.5-11.24,14.61-6.73,33.28-9.52,54.54-9.66,2.39-1.46,5.3-2.98,8.79-4.34,3.36-1.31,7.25-2.46,11.74-3.19,18.86-7.82,37.83-15.42,56.99-22.43,30.45-11.46,61.1-23.02,93.1-29.48,9.48-1.89,19.5-3.28,29.16-3.46,2.93-.15,6.84.23,9.77.31-12.92.27-25.83,2.7-38.29,5.97-25.08,6.51-49.35,15.69-73.51,25.05-13.47,5.11-37.47,14.43-60.52,23.43,1.28.1,2.57.22,3.91.39,11.99,1.51,26.59,5.89,40.88,11.94,28.97-10.9,58.17-21.65,88.6-27.78,9.48-1.89,19.5-3.28,29.16-3.46,2.93-.15,6.84.23,9.77.31-12.92.27-25.83,2.7-38.29,5.97-25.08,6.51-49.35,15.69-73.51,25.05Z"/>
</svg>